<svg width="54" height="52" viewBox="0 0 54 52" fill="none" xmlns="http://www.w3.org/2000/svg">
<path d="M23.5299 1L11.6577 39.7725H19.278L31.4332 1H23.5299Z" fill="#e9eef4"/>
<path d="M18.1314 43.0723C14.5947 43.0723 14.1486 43.0723 10.612 43.0723C8.91397 48.022 2 50.9093 2 50.9093C2 50.9093 13.1449 52.4239 18.1314 43.0723Z" fill="#e9eef4"/>
<path d="M37.0933 50.9093C42.7534 50.7096 49.8411 37.7859 45.3131 30.0984C40.785 22.4109 37.0933 21.4972 41.5238 12.2735C44.381 7.66159 45.8888 5.42517 52 1H37.0933L21.811 50.9093H37.0933Z" fill="#e9eef4"/>
<path d="M37.0933 1C31.1252 20.4908 27.7791 31.4185 21.811 50.9093M37.0933 1C42.9147 1 46.1786 1 52 1M37.0933 1H52M37.0933 1L21.811 50.9093M21.811 50.9093C21.811 50.9093 31.4332 51.109 37.0933 50.9093M21.811 50.9093C27.7791 50.9093 31.1252 50.9093 37.0933 50.9093M21.811 50.9093H37.0933M37.0933 50.9093C42.7534 50.7096 49.8411 37.7859 45.3131 30.0984C40.785 22.4109 37.0933 21.4972 41.5238 12.2735C44.381 7.66159 45.8888 5.42517 52 1M23.5299 1L11.6577 39.7725H19.278L31.4332 1H23.5299ZM18.1314 43.0723C14.5947 43.0723 14.1486 43.0723 10.612 43.0723C8.91397 48.022 2 50.9093 2 50.9093C2 50.9093 13.1449 52.4239 18.1314 43.0723Z" stroke="#e9eef4"/>
</svg>
